<svg width="191" height="40" viewBox="0 0 191 40" fill="none" xmlns="http://www.w3.org/2000/svg">
<rect x="0.5" y="0.5" width="190" height="39" rx="5.5" fill="white"/>
<rect x="0.5" y="0.5" width="190" height="39" rx="5.5" stroke="#AAABAD"/>
<path d="M17.88 25L15.836 21.29H15.262V25H12.868V15.172H16.886C17.6607 15.172 18.3187 15.3073 18.86 15.578C19.4107 15.8487 19.8213 16.222 20.092 16.698C20.3627 17.1647 20.498 17.6873 20.498 18.266C20.498 18.9193 20.3113 19.5027 19.938 20.016C19.574 20.5293 19.0327 20.8933 18.314 21.108L20.582 25H17.88ZM15.262 19.596H16.746C17.1847 19.596 17.5113 19.4887 17.726 19.274C17.95 19.0593 18.062 18.756 18.062 18.364C18.062 17.9907 17.95 17.6967 17.726 17.482C17.5113 17.2673 17.1847 17.16 16.746 17.16H15.262V19.596ZM29.3648 20.968C29.3648 21.192 29.3508 21.4253 29.3228 21.668H23.9048C23.9421 22.1533 24.0961 22.5267 24.3668 22.788C24.6468 23.04 24.9875 23.166 25.3888 23.166C25.9861 23.166 26.4015 22.914 26.6348 22.41H29.1828C29.0521 22.9233 28.8141 23.3853 28.4688 23.796C28.1328 24.2067 27.7081 24.5287 27.1948 24.762C26.6815 24.9953 26.1075 25.112 25.4728 25.112C24.7075 25.112 24.0261 24.9487 23.4288 24.622C22.8315 24.2953 22.3648 23.8287 22.0288 23.222C21.6928 22.6153 21.5248 21.906 21.5248 21.094C21.5248 20.282 21.6881 19.5727 22.0148 18.966C22.3508 18.3593 22.8175 17.8927 23.4148 17.566C24.0121 17.2393 24.6981 17.076 25.4728 17.076C26.2288 17.076 26.9008 17.2347 27.4888 17.552C28.0768 17.8693 28.5341 18.322 28.8608 18.91C29.1968 19.498 29.3648 20.184 29.3648 20.968ZM26.9148 20.338C26.9148 19.9273 26.7748 19.6007 26.4948 19.358C26.2148 19.1153 25.8648 18.994 25.4448 18.994C25.0435 18.994 24.7028 19.1107 24.4228 19.344C24.1521 19.5773 23.9841 19.9087 23.9188 20.338H26.9148ZM33.5958 17.076C34.1464 17.076 34.6271 17.188 35.0378 17.412C35.4578 17.636 35.7798 17.93 36.0038 18.294V17.188H38.3978V24.986C38.3978 25.7047 38.2531 26.3533 37.9638 26.932C37.6838 27.52 37.2498 27.9867 36.6618 28.332C36.0831 28.6773 35.3598 28.85 34.4918 28.85C33.3344 28.85 32.3964 28.5747 31.6778 28.024C30.9591 27.4827 30.5484 26.7453 30.4458 25.812H32.8118C32.8864 26.1107 33.0638 26.344 33.3438 26.512C33.6238 26.6893 33.9691 26.778 34.3798 26.778C34.8744 26.778 35.2664 26.6333 35.5558 26.344C35.8544 26.064 36.0038 25.6113 36.0038 24.986V23.88C35.7704 24.244 35.4484 24.5427 35.0378 24.776C34.6271 25 34.1464 25.112 33.5958 25.112C32.9518 25.112 32.3684 24.9487 31.8458 24.622C31.3231 24.286 30.9078 23.8147 30.5998 23.208C30.3011 22.592 30.1518 21.8827 30.1518 21.08C30.1518 20.2773 30.3011 19.5727 30.5998 18.966C30.9078 18.3593 31.3231 17.8927 31.8458 17.566C32.3684 17.2393 32.9518 17.076 33.5958 17.076ZM36.0038 21.094C36.0038 20.4967 35.8358 20.0253 35.4998 19.68C35.1731 19.3347 34.7718 19.162 34.2958 19.162C33.8198 19.162 33.4138 19.3347 33.0778 19.68C32.7511 20.016 32.5878 20.4827 32.5878 21.08C32.5878 21.6773 32.7511 22.1533 33.0778 22.508C33.4138 22.8533 33.8198 23.026 34.2958 23.026C34.7718 23.026 35.1731 22.8533 35.4998 22.508C35.8358 22.1627 36.0038 21.6913 36.0038 21.094ZM41.3337 16.376C40.9137 16.376 40.5684 16.2547 40.2977 16.012C40.0364 15.76 39.9057 15.452 39.9057 15.088C39.9057 14.7147 40.0364 14.4067 40.2977 14.164C40.5684 13.912 40.9137 13.786 41.3337 13.786C41.7444 13.786 42.0804 13.912 42.3417 14.164C42.6124 14.4067 42.7477 14.7147 42.7477 15.088C42.7477 15.452 42.6124 15.76 42.3417 16.012C42.0804 16.2547 41.7444 16.376 41.3337 16.376ZM42.5237 17.188V25H40.1297V17.188H42.5237ZM47.4366 25.112C46.7553 25.112 46.1486 24.9953 45.6166 24.762C45.0846 24.5287 44.6646 24.2113 44.3566 23.81C44.0486 23.3993 43.876 22.942 43.8386 22.438H46.2046C46.2326 22.7087 46.3586 22.928 46.5826 23.096C46.8066 23.264 47.082 23.348 47.4086 23.348C47.7073 23.348 47.936 23.292 48.0946 23.18C48.2626 23.0587 48.3466 22.9047 48.3466 22.718C48.3466 22.494 48.23 22.3307 47.9966 22.228C47.7633 22.116 47.3853 21.9947 46.8626 21.864C46.3026 21.7333 45.836 21.598 45.4626 21.458C45.0893 21.3087 44.7673 21.08 44.4966 20.772C44.226 20.4547 44.0906 20.03 44.0906 19.498C44.0906 19.05 44.212 18.644 44.4546 18.28C44.7066 17.9067 45.0706 17.6127 45.5466 17.398C46.032 17.1833 46.606 17.076 47.2686 17.076C48.2486 17.076 49.0186 17.3187 49.5786 17.804C50.148 18.2893 50.4746 18.9333 50.5586 19.736H48.3466C48.3093 19.4653 48.188 19.2507 47.9826 19.092C47.7866 18.9333 47.5253 18.854 47.1986 18.854C46.9186 18.854 46.704 18.91 46.5546 19.022C46.4053 19.1247 46.3306 19.2693 46.3306 19.456C46.3306 19.68 46.4473 19.848 46.6806 19.96C46.9233 20.072 47.2966 20.184 47.8006 20.296C48.3793 20.4453 48.8506 20.5947 49.2146 20.744C49.5786 20.884 49.896 21.1173 50.1666 21.444C50.4466 21.7613 50.5913 22.1907 50.6006 22.732C50.6006 23.1893 50.47 23.6 50.2086 23.964C49.9566 24.3187 49.588 24.5987 49.1026 24.804C48.6266 25.0093 48.0713 25.112 47.4366 25.112ZM56.4193 22.97V25H55.2013C54.3333 25 53.6566 24.79 53.1713 24.37C52.6859 23.9407 52.4433 23.2453 52.4433 22.284V19.176H51.4913V17.188H52.4433V15.284H54.8373V17.188H56.4053V19.176H54.8373V22.312C54.8373 22.5453 54.8933 22.7133 55.0053 22.816C55.1173 22.9187 55.3039 22.97 55.5653 22.97H56.4193ZM65.1168 20.968C65.1168 21.192 65.1028 21.4253 65.0748 21.668H59.6568C59.6941 22.1533 59.8481 22.5267 60.1188 22.788C60.3988 23.04 60.7394 23.166 61.1408 23.166C61.7381 23.166 62.1534 22.914 62.3868 22.41H64.9348C64.8041 22.9233 64.5661 23.3853 64.2208 23.796C63.8848 24.2067 63.4601 24.5287 62.9468 24.762C62.4334 24.9953 61.8594 25.112 61.2248 25.112C60.4594 25.112 59.7781 24.9487 59.1808 24.622C58.5834 24.2953 58.1168 23.8287 57.7808 23.222C57.4448 22.6153 57.2768 21.906 57.2768 21.094C57.2768 20.282 57.4401 19.5727 57.7668 18.966C58.1028 18.3593 58.5694 17.8927 59.1668 17.566C59.7641 17.2393 60.4501 17.076 61.2248 17.076C61.9808 17.076 62.6528 17.2347 63.2408 17.552C63.8288 17.8693 64.2861 18.322 64.6128 18.91C64.9488 19.498 65.1168 20.184 65.1168 20.968ZM62.6668 20.338C62.6668 19.9273 62.5268 19.6007 62.2468 19.358C61.9668 19.1153 61.6168 18.994 61.1968 18.994C60.7954 18.994 60.4548 19.1107 60.1748 19.344C59.9041 19.5773 59.7361 19.9087 59.6708 20.338H62.6668ZM68.7737 18.49C69.0537 18.0607 69.4037 17.7247 69.8237 17.482C70.2437 17.23 70.7104 17.104 71.2237 17.104V19.638H70.5657C69.9684 19.638 69.5204 19.7687 69.2217 20.03C68.9231 20.282 68.7737 20.73 68.7737 21.374V25H66.3797V17.188H68.7737V18.49Z" fill="#141414"/>
<path d="M86.082 17.188L83.968 25H81.322L80.09 19.932L78.816 25H76.184L74.056 17.188H76.45L77.556 22.774L78.872 17.188H81.406L82.736 22.746L83.828 17.188H86.082ZM88.199 16.376C87.779 16.376 87.4336 16.2547 87.163 16.012C86.9016 15.76 86.771 15.452 86.771 15.088C86.771 14.7147 86.9016 14.4067 87.163 14.164C87.4336 13.912 87.779 13.786 88.199 13.786C88.6096 13.786 88.9456 13.912 89.207 14.164C89.4776 14.4067 89.613 14.7147 89.613 15.088C89.613 15.452 89.4776 15.76 89.207 16.012C88.9456 16.2547 88.6096 16.376 88.199 16.376ZM89.389 17.188V25H86.995V17.188H89.389ZM95.4779 22.97V25H94.2599C93.3919 25 92.7152 24.79 92.2299 24.37C91.7445 23.9407 91.5019 23.2453 91.5019 22.284V19.176H90.5499V17.188H91.5019V15.284H93.8959V17.188H95.4639V19.176H93.8959V22.312C93.8959 22.5453 93.9519 22.7133 94.0639 22.816C94.1759 22.9187 94.3625 22.97 94.6239 22.97H95.4779ZM101.613 17.104C102.509 17.104 103.228 17.4027 103.769 18C104.311 18.588 104.581 19.4 104.581 20.436V25H102.201V20.758C102.201 20.2353 102.066 19.8293 101.795 19.54C101.525 19.2507 101.161 19.106 100.703 19.106C100.246 19.106 99.882 19.2507 99.6114 19.54C99.3407 19.8293 99.2054 20.2353 99.2054 20.758V25H96.8114V14.64H99.2054V18.238C99.448 17.8927 99.7794 17.6173 100.199 17.412C100.619 17.2067 101.091 17.104 101.613 17.104Z" fill="#141414"/>
<path fill-rule="evenodd" clip-rule="evenodd" d="M118.357 19.3168C119.179 19.3168 119.816 18.6798 119.816 17.8584C119.816 17.0371 119.179 16.4 118.357 16.4C117.535 16.4 116.898 17.0371 116.898 17.8584C116.898 18.6798 117.535 19.3168 118.357 19.3168Z" fill="black"/>
<path fill-rule="evenodd" clip-rule="evenodd" d="M116.781 25.0162H119.934L119.263 19.8029C118.76 19.9538 117.955 19.9538 117.451 19.8029L116.781 25.0162Z" fill="black"/>
<path fill-rule="evenodd" clip-rule="evenodd" d="M112.453 25.2385C114.583 25.2385 115.874 24.1167 115.874 22.366C115.874 21.1422 115.137 20.3093 113.61 19.9694L112.118 19.6294C111.547 19.4935 111.245 19.3065 111.245 18.9665C111.245 18.6266 111.531 18.4057 112.168 18.4057C112.939 18.4057 113.744 18.7796 114.298 19.2895L115.556 17.4199C114.952 16.876 113.711 16.4 112.168 16.4C110.172 16.4 108.83 17.4028 108.83 19.1026C108.83 20.3434 109.518 21.2442 110.977 21.5841L112.47 21.9411C113.208 22.111 113.443 22.332 113.443 22.621C113.443 22.9949 113.141 23.1989 112.453 23.1989C111.648 23.1989 110.675 22.8589 109.887 22.1791L108.629 24.0487C109.216 24.5926 110.558 25.2385 112.453 25.2385Z" fill="#F4333D"/>
<path fill-rule="evenodd" clip-rule="evenodd" d="M121.41 25.0686H123.925V20.4964C123.925 19.3746 124.462 18.6777 125.502 18.6777C126.491 18.6777 127.011 19.2556 127.011 20.4964V25.0686H129.527V19.8505C129.527 17.5729 128.403 16.4001 126.475 16.4001C125.368 16.4001 124.529 16.842 123.925 17.7089V17.1649C123.925 16.791 123.707 16.57 123.338 16.57H121.41V25.0686Z" fill="#F4333D"/>
<path fill-rule="evenodd" clip-rule="evenodd" d="M135.331 22.5871C134.274 22.5871 133.419 21.7202 133.419 20.6154C133.419 19.5106 134.274 18.6437 135.331 18.6437C136.471 18.6437 137.293 19.5106 137.293 20.6154C137.293 21.7202 136.471 22.5871 135.331 22.5871ZM137.796 16.57C137.427 16.57 137.209 16.791 137.209 17.1649V17.6748C136.639 16.808 135.733 16.4001 134.66 16.4001C132.63 16.4001 130.869 18.2018 130.869 20.6154C130.869 23.0289 132.63 24.8306 134.66 24.8306C135.733 24.8306 136.605 24.4907 137.209 23.7258V24.2697C137.209 25.4255 136.454 26.2584 135.163 26.2584C134.006 26.2584 133.117 25.7654 132.563 25.2216L131.255 27.1932C132.094 27.9581 133.486 28.4 135.163 28.4C137.679 28.4 139.725 27.1252 139.725 23.9298V16.57H137.796Z" fill="#F4333D"/>
<path fill-rule="evenodd" clip-rule="evenodd" d="M146.115 22.9949C144.924 22.9949 144.002 22.0941 144.002 20.8193C144.002 19.5445 144.924 18.6436 146.115 18.6436C147.289 18.6436 148.178 19.5445 148.178 20.8193C148.178 22.0941 147.289 22.9949 146.115 22.9949ZM146.786 16.4C145.646 16.4 144.706 16.8079 144.086 17.6748V17.1649C144.086 16.791 143.868 16.57 143.499 16.57H141.57V28.196H144.086V24.1337C144.74 24.8985 145.646 25.2385 146.786 25.2385C148.966 25.2385 150.728 23.4368 150.728 20.8193C150.728 18.2017 148.966 16.4 146.786 16.4Z" fill="#F4333D"/>
<path fill-rule="evenodd" clip-rule="evenodd" d="M156.413 22.9949C155.239 22.9949 154.35 22.0941 154.35 20.8193C154.35 19.5445 155.239 18.6436 156.413 18.6436C157.604 18.6436 158.527 19.5445 158.527 20.8193C158.527 22.0941 157.604 22.9949 156.413 22.9949ZM159.03 16.57C158.661 16.57 158.443 16.791 158.443 17.1649V17.6748C157.822 16.8079 156.883 16.4 155.743 16.4C153.562 16.4 151.801 18.2017 151.801 20.8193C151.801 23.4368 153.562 25.2385 155.743 25.2385C156.883 25.2385 157.822 24.8305 158.443 23.9638V25.0685H160.959V16.57H159.03Z" fill="#F4333D"/>
<path fill-rule="evenodd" clip-rule="evenodd" d="M166.057 25.2385C168.187 25.2385 169.479 24.1167 169.479 22.366C169.479 21.1422 168.741 20.3093 167.215 19.9694L165.722 19.6294C165.152 19.4935 164.85 19.3065 164.85 18.9665C164.85 18.6266 165.135 18.4057 165.772 18.4057C166.544 18.4057 167.349 18.7796 167.902 19.2895L169.16 17.4199C168.556 16.876 167.315 16.4 165.772 16.4C163.776 16.4 162.435 17.4028 162.435 19.1026C162.435 20.3434 163.122 21.2442 164.582 21.5841L166.074 21.9411C166.812 22.111 167.047 22.332 167.047 22.621C167.047 22.9949 166.745 23.1989 166.057 23.1989C165.252 23.1989 164.28 22.8589 163.491 22.1791L162.233 24.0487C162.82 24.5926 164.162 25.2385 166.057 25.2385Z" fill="#F4333D"/>
<path fill-rule="evenodd" clip-rule="evenodd" d="M174.008 25.2385C176.138 25.2385 177.429 24.1167 177.429 22.366C177.429 21.1422 176.691 20.3093 175.165 19.9694L173.672 19.6294C173.102 19.4935 172.8 19.3065 172.8 18.9665C172.8 18.6266 173.085 18.4057 173.722 18.4057C174.494 18.4057 175.299 18.7796 175.852 19.2895L177.11 17.4199C176.507 16.876 175.265 16.4 173.722 16.4C171.727 16.4 170.385 17.4028 170.385 19.1026C170.385 20.3434 171.073 21.2442 172.532 21.5841L174.024 21.9411C174.762 22.111 174.997 22.332 174.997 22.621C174.997 22.9949 174.695 23.1989 174.008 23.1989C173.203 23.1989 172.23 22.8589 171.441 22.1791L170.184 24.0487C170.771 24.5926 172.112 25.2385 174.008 25.2385Z" fill="#F4333D"/>
</svg>
